<svg width="24" height="24" viewBox="0 0 24 24" fill="none" xmlns="http://www.w3.org/2000/svg">
    <path fill-rule="evenodd" clip-rule="evenodd"
        d="M20.911 7.43349C21.0491 7.67264 20.9672 7.97843 20.728 8.1165L4.27352 17.6165C4.03437 17.7546 3.72858 17.6726 3.59051 17.4335L3.09051 16.5675C2.95244 16.3283 3.03437 16.0225 3.27352 15.8845L19.728 6.38445C19.9671 6.24638 20.2729 6.32832 20.411 6.56747L20.911 7.43349Z"
        fill="#151515" />
    <path fill-rule="evenodd" clip-rule="evenodd"
        d="M20.911 7.43349C21.0491 7.67264 20.9672 7.97843 20.728 8.1165L4.27352 17.6165C4.03437 17.7546 3.72858 17.6726 3.59051 17.4335L3.09051 16.5675C2.95244 16.3283 3.03437 16.0225 3.27352 15.8845L19.728 6.38445C19.9671 6.24638 20.2729 6.32832 20.411 6.56747L20.911 7.43349Z"
        fill="black" fill-opacity="0.2" />
    <path fill-rule="evenodd" clip-rule="evenodd"
        d="M20.911 7.43349C21.0491 7.67264 20.9672 7.97843 20.728 8.1165L4.27352 17.6165C4.03437 17.7546 3.72858 17.6726 3.59051 17.4335L3.09051 16.5675C2.95244 16.3283 3.03437 16.0225 3.27352 15.8845L19.728 6.38445C19.9671 6.24638 20.2729 6.32832 20.411 6.56747L20.911 7.43349Z"
        fill="black" fill-opacity="0.2" />
</svg>
