<svg width="24" height="24" viewBox="0 0 24 24" fill="none" xmlns="http://www.w3.org/2000/svg">
    <path
        d="M19.5 14C19.7761 14 20 14.2239 20 14.5V17H22.5C22.7761 17 23 17.2239 23 17.5V18.5C23 18.7761 22.7761 19 22.5 19H20V21.5C20 21.7761 19.7761 22 19.5 22H18.5C18.2239 22 18 21.7761 18 21.5V19H15.5C15.2239 19 15 18.7761 15 18.5V17.5C15 17.2239 15.2239 17 15.5 17H18V14.5C18 14.2239 18.2239 14 18.5 14H19.5ZM20.008 2C20.556 2 21 2.445 21 2.993V12.342C20.3576 12.1151 19.6813 11.9994 19 12V4H3L3.001 18L12.293 8.707C12.465 8.53448 12.694 8.43073 12.9371 8.41526C13.1802 8.39979 13.4206 8.47367 13.613 8.623L13.706 8.708L17.252 12.258C16.4766 12.4943 15.7572 12.8851 15.1369 13.407C14.5167 13.9288 14.0086 14.5709 13.6432 15.2944C13.2779 16.0179 13.0628 16.808 13.0111 17.6169C12.9593 18.4258 13.0719 19.2368 13.342 20.001L1.992 20C1.72881 19.9997 1.4765 19.895 1.29049 19.7088C1.10448 19.5226 1 19.2702 1 19.007V2.993C1.00183 2.73038 1.1069 2.47902 1.29251 2.29322C1.47813 2.10742 1.72938 2.00209 1.992 2H20.008ZM7 6C7.53043 6 8.03914 6.21071 8.41421 6.58579C8.78929 6.96086 9 7.46957 9 8C9 8.53043 8.78929 9.03914 8.41421 9.41421C8.03914 9.78929 7.53043 10 7 10C6.46957 10 5.96086 9.78929 5.58579 9.41421C5.21071 9.03914 5 8.53043 5 8C5 7.46957 5.21071 6.96086 5.58579 6.58579C5.96086 6.21071 6.46957 6 7 6Z"
        fill="#151515" />
    <path
        d="M19.5 14C19.7761 14 20 14.2239 20 14.5V17H22.5C22.7761 17 23 17.2239 23 17.5V18.5C23 18.7761 22.7761 19 22.5 19H20V21.5C20 21.7761 19.7761 22 19.5 22H18.5C18.2239 22 18 21.7761 18 21.5V19H15.5C15.2239 19 15 18.7761 15 18.5V17.5C15 17.2239 15.2239 17 15.5 17H18V14.5C18 14.2239 18.2239 14 18.5 14H19.5ZM20.008 2C20.556 2 21 2.445 21 2.993V12.342C20.3576 12.1151 19.6813 11.9994 19 12V4H3L3.001 18L12.293 8.707C12.465 8.53448 12.694 8.43073 12.9371 8.41526C13.1802 8.39979 13.4206 8.47367 13.613 8.623L13.706 8.708L17.252 12.258C16.4766 12.4943 15.7572 12.8851 15.1369 13.407C14.5167 13.9288 14.0086 14.5709 13.6432 15.2944C13.2779 16.0179 13.0628 16.808 13.0111 17.6169C12.9593 18.4258 13.0719 19.2368 13.342 20.001L1.992 20C1.72881 19.9997 1.4765 19.895 1.29049 19.7088C1.10448 19.5226 1 19.2702 1 19.007V2.993C1.00183 2.73038 1.1069 2.47902 1.29251 2.29322C1.47813 2.10742 1.72938 2.00209 1.992 2H20.008ZM7 6C7.53043 6 8.03914 6.21071 8.41421 6.58579C8.78929 6.96086 9 7.46957 9 8C9 8.53043 8.78929 9.03914 8.41421 9.41421C8.03914 9.78929 7.53043 10 7 10C6.46957 10 5.96086 9.78929 5.58579 9.41421C5.21071 9.03914 5 8.53043 5 8C5 7.46957 5.21071 6.96086 5.58579 6.58579C5.96086 6.21071 6.46957 6 7 6Z"
        fill="black" fill-opacity="0.2" />
    <path
        d="M19.5 14C19.7761 14 20 14.2239 20 14.5V17H22.5C22.7761 17 23 17.2239 23 17.5V18.5C23 18.7761 22.7761 19 22.5 19H20V21.5C20 21.7761 19.7761 22 19.5 22H18.5C18.2239 22 18 21.7761 18 21.5V19H15.5C15.2239 19 15 18.7761 15 18.5V17.5C15 17.2239 15.2239 17 15.5 17H18V14.5C18 14.2239 18.2239 14 18.5 14H19.5ZM20.008 2C20.556 2 21 2.445 21 2.993V12.342C20.3576 12.1151 19.6813 11.9994 19 12V4H3L3.001 18L12.293 8.707C12.465 8.53448 12.694 8.43073 12.9371 8.41526C13.1802 8.39979 13.4206 8.47367 13.613 8.623L13.706 8.708L17.252 12.258C16.4766 12.4943 15.7572 12.8851 15.1369 13.407C14.5167 13.9288 14.0086 14.5709 13.6432 15.2944C13.2779 16.0179 13.0628 16.808 13.0111 17.6169C12.9593 18.4258 13.0719 19.2368 13.342 20.001L1.992 20C1.72881 19.9997 1.4765 19.895 1.29049 19.7088C1.10448 19.5226 1 19.2702 1 19.007V2.993C1.00183 2.73038 1.1069 2.47902 1.29251 2.29322C1.47813 2.10742 1.72938 2.00209 1.992 2H20.008ZM7 6C7.53043 6 8.03914 6.21071 8.41421 6.58579C8.78929 6.96086 9 7.46957 9 8C9 8.53043 8.78929 9.03914 8.41421 9.41421C8.03914 9.78929 7.53043 10 7 10C6.46957 10 5.96086 9.78929 5.58579 9.41421C5.21071 9.03914 5 8.53043 5 8C5 7.46957 5.21071 6.96086 5.58579 6.58579C5.96086 6.21071 6.46957 6 7 6Z"
        fill="black" fill-opacity="0.2" />
</svg>
