<svg width="24" height="24" viewBox="0 0 24 24" fill="none" xmlns="http://www.w3.org/2000/svg">
    <path fill-rule="evenodd" clip-rule="evenodd"
        d="M18.919 7.6828C19.1143 7.87806 19.4309 7.87806 19.6262 7.6828L20.2361 7.07285C20.4314 6.87759 20.4314 6.56101 20.2361 6.36575L15.8211 1.95071C15.6258 1.75544 15.3092 1.75544 15.114 1.95071L14.504 2.56066C14.3087 2.75592 14.3087 3.0725 14.504 3.26776L18.919 7.6828ZM12.3645 3.71648C12.8956 3.55308 13.4735 3.69661 13.8663 4.08949L18.1098 8.33294C18.4824 8.70551 18.6321 9.24624 18.5043 9.7574L17.2453 14.7935C17.1166 15.3085 16.7252 15.7171 16.2162 15.8679L6.69238 18.6898C6.92015 18.8066 7.15893 18.9169 7.40681 19.0169C8.66886 19.5259 10.0835 19.7359 11.4662 19.275C12.444 18.9491 13.2364 18.5676 13.9473 18.2051C14.0588 18.1483 14.1707 18.0905 14.2829 18.0326L14.2835 18.0322C14.8565 17.7364 15.4362 17.4372 15.9921 17.2426C16.7034 16.9937 17.4609 16.8801 18.3112 17.0926C19.0101 17.2674 19.699 17.6447 20.4283 18.2158C20.6458 18.3861 20.6692 18.7031 20.4895 18.9127L19.8387 19.672C19.659 19.8817 19.3445 19.904 19.1252 19.7362C18.5708 19.3122 18.1547 19.1151 17.8261 19.0329C17.4541 18.9399 17.1057 18.9718 16.6528 19.1303C16.241 19.2744 15.8127 19.4949 15.2404 19.7895L15.2404 19.7895L15.2399 19.7898C15.1188 19.8521 14.9912 19.9178 14.856 19.9868C14.1117 20.3663 13.2163 20.7998 12.0986 21.1724C10.1286 21.829 8.2061 21.4958 6.65873 20.8717C5.55598 20.4269 4.60156 19.8187 3.88902 19.2499C3.17248 19.0172 2.67916 18.2509 2.9002 17.4298L5.8555 6.45303C5.98955 5.95512 6.36995 5.56097 6.86279 5.40932L12.3645 3.71648ZM12.665 5.71657L7.71493 7.23966L5.57146 15.2011L8.9797 11.7929L8.98697 11.8001C8.95434 11.6606 8.93708 11.5151 8.93708 11.3656C8.93708 10.316 9.78799 9.46507 10.8376 9.46507C11.8873 9.46507 12.7382 10.316 12.7382 11.3656C12.7382 12.4153 11.8873 13.2662 10.8376 13.2662C10.6828 13.2662 10.5323 13.2477 10.3882 13.2128L7.12546 16.4755L15.3743 14.0315L16.4954 9.54697L12.665 5.71657Z"
        fill="#151515" />
    <path fill-rule="evenodd" clip-rule="evenodd"
        d="M18.919 7.6828C19.1143 7.87806 19.4309 7.87806 19.6262 7.6828L20.2361 7.07285C20.4314 6.87759 20.4314 6.56101 20.2361 6.36575L15.8211 1.95071C15.6258 1.75544 15.3092 1.75544 15.114 1.95071L14.504 2.56066C14.3087 2.75592 14.3087 3.0725 14.504 3.26776L18.919 7.6828ZM12.3645 3.71648C12.8956 3.55308 13.4735 3.69661 13.8663 4.08949L18.1098 8.33294C18.4824 8.70551 18.6321 9.24624 18.5043 9.7574L17.2453 14.7935C17.1166 15.3085 16.7252 15.7171 16.2162 15.8679L6.69238 18.6898C6.92015 18.8066 7.15893 18.9169 7.40681 19.0169C8.66886 19.5259 10.0835 19.7359 11.4662 19.275C12.444 18.9491 13.2364 18.5676 13.9473 18.2051C14.0588 18.1483 14.1707 18.0905 14.2829 18.0326L14.2835 18.0322C14.8565 17.7364 15.4362 17.4372 15.9921 17.2426C16.7034 16.9937 17.4609 16.8801 18.3112 17.0926C19.0101 17.2674 19.699 17.6447 20.4283 18.2158C20.6458 18.3861 20.6692 18.7031 20.4895 18.9127L19.8387 19.672C19.659 19.8817 19.3445 19.904 19.1252 19.7362C18.5708 19.3122 18.1547 19.1151 17.8261 19.0329C17.4541 18.9399 17.1057 18.9718 16.6528 19.1303C16.241 19.2744 15.8127 19.4949 15.2404 19.7895L15.2404 19.7895L15.2399 19.7898C15.1188 19.8521 14.9912 19.9178 14.856 19.9868C14.1117 20.3663 13.2163 20.7998 12.0986 21.1724C10.1286 21.829 8.2061 21.4958 6.65873 20.8717C5.55598 20.4269 4.60156 19.8187 3.88902 19.2499C3.17248 19.0172 2.67916 18.2509 2.9002 17.4298L5.8555 6.45303C5.98955 5.95512 6.36995 5.56097 6.86279 5.40932L12.3645 3.71648ZM12.665 5.71657L7.71493 7.23966L5.57146 15.2011L8.9797 11.7929L8.98697 11.8001C8.95434 11.6606 8.93708 11.5151 8.93708 11.3656C8.93708 10.316 9.78799 9.46507 10.8376 9.46507C11.8873 9.46507 12.7382 10.316 12.7382 11.3656C12.7382 12.4153 11.8873 13.2662 10.8376 13.2662C10.6828 13.2662 10.5323 13.2477 10.3882 13.2128L7.12546 16.4755L15.3743 14.0315L16.4954 9.54697L12.665 5.71657Z"
        fill="black" fill-opacity="0.2" />
    <path fill-rule="evenodd" clip-rule="evenodd"
        d="M18.919 7.6828C19.1143 7.87806 19.4309 7.87806 19.6262 7.6828L20.2361 7.07285C20.4314 6.87759 20.4314 6.56101 20.2361 6.36575L15.8211 1.95071C15.6258 1.75544 15.3092 1.75544 15.114 1.95071L14.504 2.56066C14.3087 2.75592 14.3087 3.0725 14.504 3.26776L18.919 7.6828ZM12.3645 3.71648C12.8956 3.55308 13.4735 3.69661 13.8663 4.08949L18.1098 8.33294C18.4824 8.70551 18.6321 9.24624 18.5043 9.7574L17.2453 14.7935C17.1166 15.3085 16.7252 15.7171 16.2162 15.8679L6.69238 18.6898C6.92015 18.8066 7.15893 18.9169 7.40681 19.0169C8.66886 19.5259 10.0835 19.7359 11.4662 19.275C12.444 18.9491 13.2364 18.5676 13.9473 18.2051C14.0588 18.1483 14.1707 18.0905 14.2829 18.0326L14.2835 18.0322C14.8565 17.7364 15.4362 17.4372 15.9921 17.2426C16.7034 16.9937 17.4609 16.8801 18.3112 17.0926C19.0101 17.2674 19.699 17.6447 20.4283 18.2158C20.6458 18.3861 20.6692 18.7031 20.4895 18.9127L19.8387 19.672C19.659 19.8817 19.3445 19.904 19.1252 19.7362C18.5708 19.3122 18.1547 19.1151 17.8261 19.0329C17.4541 18.9399 17.1057 18.9718 16.6528 19.1303C16.241 19.2744 15.8127 19.4949 15.2404 19.7895L15.2404 19.7895L15.2399 19.7898C15.1188 19.8521 14.9912 19.9178 14.856 19.9868C14.1117 20.3663 13.2163 20.7998 12.0986 21.1724C10.1286 21.829 8.2061 21.4958 6.65873 20.8717C5.55598 20.4269 4.60156 19.8187 3.88902 19.2499C3.17248 19.0172 2.67916 18.2509 2.9002 17.4298L5.8555 6.45303C5.98955 5.95512 6.36995 5.56097 6.86279 5.40932L12.3645 3.71648ZM12.665 5.71657L7.71493 7.23966L5.57146 15.2011L8.9797 11.7929L8.98697 11.8001C8.95434 11.6606 8.93708 11.5151 8.93708 11.3656C8.93708 10.316 9.78799 9.46507 10.8376 9.46507C11.8873 9.46507 12.7382 10.316 12.7382 11.3656C12.7382 12.4153 11.8873 13.2662 10.8376 13.2662C10.6828 13.2662 10.5323 13.2477 10.3882 13.2128L7.12546 16.4755L15.3743 14.0315L16.4954 9.54697L12.665 5.71657Z"
        fill="black" fill-opacity="0.2" />
</svg>
