<svg width="24" height="24" viewBox="0 0 24 24" fill="none" xmlns="http://www.w3.org/2000/svg">
    <path fill-rule="evenodd" clip-rule="evenodd"
        d="M2.5 3C2.77614 3 3 3.22386 3 3.5V20.5C3 20.7761 2.77614 21 2.5 21H1.5C1.22386 21 1 20.7761 1 20.5V3.5C1 3.22386 1.22386 3 1.5 3H2.5ZM21.5 21C21.2239 21 21 20.7761 21 20.5V3.5C21 3.22386 21.2239 3 21.5 3H22.5C22.7761 3 23 3.22386 23 3.5V20.5C23 20.7761 22.7761 21 22.5 21H21.5Z"
        fill="#151515" />
    <path fill-rule="evenodd" clip-rule="evenodd"
        d="M2.5 3C2.77614 3 3 3.22386 3 3.5V20.5C3 20.7761 2.77614 21 2.5 21H1.5C1.22386 21 1 20.7761 1 20.5V3.5C1 3.22386 1.22386 3 1.5 3H2.5ZM21.5 21C21.2239 21 21 20.7761 21 20.5V3.5C21 3.22386 21.2239 3 21.5 3H22.5C22.7761 3 23 3.22386 23 3.5V20.5C23 20.7761 22.7761 21 22.5 21H21.5Z"
        fill="black" fill-opacity="0.2" />
    <path fill-rule="evenodd" clip-rule="evenodd"
        d="M2.5 3C2.77614 3 3 3.22386 3 3.5V20.5C3 20.7761 2.77614 21 2.5 21H1.5C1.22386 21 1 20.7761 1 20.5V3.5C1 3.22386 1.22386 3 1.5 3H2.5ZM21.5 21C21.2239 21 21 20.7761 21 20.5V3.5C21 3.22386 21.2239 3 21.5 3H22.5C22.7761 3 23 3.22386 23 3.5V20.5C23 20.7761 22.7761 21 22.5 21H21.5Z"
        fill="black" fill-opacity="0.2" />
    <path fill-rule="evenodd" clip-rule="evenodd"
        d="M5.5 5.5C5.5 5.22386 5.72386 5 6 5H18C18.2761 5 18.5 5.22386 18.5 5.5V8.5625C18.5 8.83864 18.2761 9.0625 18 9.0625H17C16.7239 9.0625 16.5 8.83864 16.5 8.5625V7H7.5V8.5625C7.5 8.83864 7.27614 9.0625 7 9.0625H6C5.72386 9.0625 5.5 8.83864 5.5 8.5625V5.5Z"
        fill="#151515" />
    <path fill-rule="evenodd" clip-rule="evenodd"
        d="M5.5 5.5C5.5 5.22386 5.72386 5 6 5H18C18.2761 5 18.5 5.22386 18.5 5.5V8.5625C18.5 8.83864 18.2761 9.0625 18 9.0625H17C16.7239 9.0625 16.5 8.83864 16.5 8.5625V7H7.5V8.5625C7.5 8.83864 7.27614 9.0625 7 9.0625H6C5.72386 9.0625 5.5 8.83864 5.5 8.5625V5.5Z"
        fill="black" fill-opacity="0.2" />
    <path fill-rule="evenodd" clip-rule="evenodd"
        d="M5.5 5.5C5.5 5.22386 5.72386 5 6 5H18C18.2761 5 18.5 5.22386 18.5 5.5V8.5625C18.5 8.83864 18.2761 9.0625 18 9.0625H17C16.7239 9.0625 16.5 8.83864 16.5 8.5625V7H7.5V8.5625C7.5 8.83864 7.27614 9.0625 7 9.0625H6C5.72386 9.0625 5.5 8.83864 5.5 8.5625V5.5Z"
        fill="black" fill-opacity="0.2" />
    <path fill-rule="evenodd" clip-rule="evenodd"
        d="M8.9375 17.5C8.9375 17.2238 9.16136 17 9.4375 17H14.5625C14.8386 17 15.0625 17.2238 15.0625 17.5V18.5C15.0625 18.7761 14.8386 19 14.5625 19H9.4375C9.16136 19 8.9375 18.7761 8.9375 18.5V17.5Z"
        fill="#151515" />
    <path fill-rule="evenodd" clip-rule="evenodd"
        d="M8.9375 17.5C8.9375 17.2238 9.16136 17 9.4375 17H14.5625C14.8386 17 15.0625 17.2238 15.0625 17.5V18.5C15.0625 18.7761 14.8386 19 14.5625 19H9.4375C9.16136 19 8.9375 18.7761 8.9375 18.5V17.5Z"
        fill="black" fill-opacity="0.2" />
    <path fill-rule="evenodd" clip-rule="evenodd"
        d="M8.9375 17.5C8.9375 17.2238 9.16136 17 9.4375 17H14.5625C14.8386 17 15.0625 17.2238 15.0625 17.5V18.5C15.0625 18.7761 14.8386 19 14.5625 19H9.4375C9.16136 19 8.9375 18.7761 8.9375 18.5V17.5Z"
        fill="black" fill-opacity="0.2" />
    <path fill-rule="evenodd" clip-rule="evenodd" d="M13 5V19H11V5H13Z" fill="#151515" />
    <path fill-rule="evenodd" clip-rule="evenodd" d="M13 5V19H11V5H13Z" fill="black"
        fill-opacity="0.2" />
    <path fill-rule="evenodd" clip-rule="evenodd" d="M13 5V19H11V5H13Z" fill="black"
        fill-opacity="0.2" />
</svg>
