<svg width="24" height="24" viewBox="0 0 24 24" fill="none" xmlns="http://www.w3.org/2000/svg">
    <path
        d="M12.5131 12.6378L11.7843 14.1693C11.7705 14.1982 11.7498 14.2234 11.7242 14.2426C11.6985 14.2618 11.6685 14.2744 11.6368 14.2795C11.6051 14.2845 11.5727 14.2817 11.5423 14.2714C11.512 14.2611 11.4846 14.2436 11.4625 14.2203L10.296 12.9889C10.2648 12.9561 10.2233 12.9349 10.1784 12.929L8.4965 12.709C8.46472 12.7048 8.43444 12.6929 8.40826 12.6744C8.38209 12.6559 8.36081 12.6314 8.34625 12.6028C8.3317 12.5742 8.32431 12.5426 8.32472 12.5105C8.32514 12.4785 8.33334 12.447 8.34863 12.4188L9.15945 10.9289C9.18101 10.8891 9.18822 10.843 9.17987 10.7985L8.86931 9.13107C8.86341 9.09951 8.86529 9.06699 8.87479 9.03632C8.88429 9.00565 8.90112 8.97775 8.92382 8.95505C8.94652 8.93235 8.97442 8.91552 9.00509 8.90602C9.03576 8.89652 9.06828 8.89464 9.09984 8.90053L10.7673 9.2111C10.8118 9.21944 10.8578 9.21223 10.8977 9.19068L12.3876 8.37985C12.4158 8.36456 12.4473 8.35637 12.4794 8.35597C12.5114 8.35558 12.5431 8.36299 12.5717 8.37758C12.6003 8.39217 12.6248 8.4135 12.6433 8.43971C12.6618 8.46593 12.6736 8.49625 12.6778 8.52805L12.8977 10.2096C12.9037 10.2545 12.9248 10.2961 12.9577 10.3272L14.1891 11.4937C14.2123 11.5158 14.2299 11.5432 14.2402 11.5736C14.2505 11.6039 14.2533 11.6364 14.2482 11.668C14.2432 11.6997 14.2306 11.7297 14.2114 11.7554C14.1922 11.7811 14.167 11.8017 14.138 11.8155L12.6066 12.5443C12.5656 12.5638 12.5326 12.5968 12.5131 12.6378Z"
        fill="#151515" />
    <path
        d="M12.5131 12.6378L11.7843 14.1693C11.7705 14.1982 11.7498 14.2234 11.7242 14.2426C11.6985 14.2618 11.6685 14.2744 11.6368 14.2795C11.6051 14.2845 11.5727 14.2817 11.5423 14.2714C11.512 14.2611 11.4846 14.2436 11.4625 14.2203L10.296 12.9889C10.2648 12.9561 10.2233 12.9349 10.1784 12.929L8.4965 12.709C8.46472 12.7048 8.43444 12.6929 8.40826 12.6744C8.38209 12.6559 8.36081 12.6314 8.34625 12.6028C8.3317 12.5742 8.32431 12.5426 8.32472 12.5105C8.32514 12.4785 8.33334 12.447 8.34863 12.4188L9.15945 10.9289C9.18101 10.8891 9.18822 10.843 9.17987 10.7985L8.86931 9.13107C8.86341 9.09951 8.86529 9.06699 8.87479 9.03632C8.88429 9.00565 8.90112 8.97775 8.92382 8.95505C8.94652 8.93235 8.97442 8.91552 9.00509 8.90602C9.03576 8.89652 9.06828 8.89464 9.09984 8.90053L10.7673 9.2111C10.8118 9.21944 10.8578 9.21223 10.8977 9.19068L12.3876 8.37985C12.4158 8.36456 12.4473 8.35637 12.4794 8.35597C12.5114 8.35558 12.5431 8.36299 12.5717 8.37758C12.6003 8.39217 12.6248 8.4135 12.6433 8.43971C12.6618 8.46593 12.6736 8.49625 12.6778 8.52805L12.8977 10.2096C12.9037 10.2545 12.9248 10.2961 12.9577 10.3272L14.1891 11.4937C14.2123 11.5158 14.2299 11.5432 14.2402 11.5736C14.2505 11.6039 14.2533 11.6364 14.2482 11.668C14.2432 11.6997 14.2306 11.7297 14.2114 11.7554C14.1922 11.7811 14.167 11.8017 14.138 11.8155L12.6066 12.5443C12.5656 12.5638 12.5326 12.5968 12.5131 12.6378Z"
        fill="black" fill-opacity="0.2" />
    <path
        d="M12.5131 12.6378L11.7843 14.1693C11.7705 14.1982 11.7498 14.2234 11.7242 14.2426C11.6985 14.2618 11.6685 14.2744 11.6368 14.2795C11.6051 14.2845 11.5727 14.2817 11.5423 14.2714C11.512 14.2611 11.4846 14.2436 11.4625 14.2203L10.296 12.9889C10.2648 12.9561 10.2233 12.9349 10.1784 12.929L8.4965 12.709C8.46472 12.7048 8.43444 12.6929 8.40826 12.6744C8.38209 12.6559 8.36081 12.6314 8.34625 12.6028C8.3317 12.5742 8.32431 12.5426 8.32472 12.5105C8.32514 12.4785 8.33334 12.447 8.34863 12.4188L9.15945 10.9289C9.18101 10.8891 9.18822 10.843 9.17987 10.7985L8.86931 9.13107C8.86341 9.09951 8.86529 9.06699 8.87479 9.03632C8.88429 9.00565 8.90112 8.97775 8.92382 8.95505C8.94652 8.93235 8.97442 8.91552 9.00509 8.90602C9.03576 8.89652 9.06828 8.89464 9.09984 8.90053L10.7673 9.2111C10.8118 9.21944 10.8578 9.21223 10.8977 9.19068L12.3876 8.37985C12.4158 8.36456 12.4473 8.35637 12.4794 8.35597C12.5114 8.35558 12.5431 8.36299 12.5717 8.37758C12.6003 8.39217 12.6248 8.4135 12.6433 8.43971C12.6618 8.46593 12.6736 8.49625 12.6778 8.52805L12.8977 10.2096C12.9037 10.2545 12.9248 10.2961 12.9577 10.3272L14.1891 11.4937C14.2123 11.5158 14.2299 11.5432 14.2402 11.5736C14.2505 11.6039 14.2533 11.6364 14.2482 11.668C14.2432 11.6997 14.2306 11.7297 14.2114 11.7554C14.1922 11.7811 14.167 11.8017 14.138 11.8155L12.6066 12.5443C12.5656 12.5638 12.5326 12.5968 12.5131 12.6378Z"
        fill="black" fill-opacity="0.2" />
    <path fill-rule="evenodd" clip-rule="evenodd"
        d="M8.4941 16.5789L12.0374 20.3192C12.1044 20.3899 12.1876 20.4432 12.2799 20.4745C12.3721 20.5058 12.4706 20.5142 12.5668 20.4989C12.6631 20.4837 12.7541 20.4452 12.8321 20.3869C12.9102 20.3286 12.9728 20.2521 13.0147 20.1642L15.2285 15.5125C15.2877 15.388 15.3881 15.2877 15.5126 15.2284L20.1642 13.0146C20.2522 12.9728 20.3286 12.9101 20.387 12.8321C20.4453 12.754 20.4837 12.663 20.499 12.5668C20.5143 12.4706 20.5059 12.3721 20.4746 12.2798C20.4433 12.1876 20.39 12.1043 20.3193 12.0373L16.579 8.49403C16.4792 8.39937 16.4149 8.2733 16.3969 8.13691L15.7287 3.02909C15.7161 2.93248 15.6802 2.84039 15.6241 2.76076C15.5679 2.68113 15.4933 2.61636 15.4065 2.57204C15.3197 2.52772 15.2235 2.50519 15.1261 2.50639C15.0287 2.50759 14.933 2.53249 14.8474 2.57893L10.3218 5.04181C10.2007 5.10728 10.0609 5.12918 9.92561 5.10383L4.86081 4.16049C4.76494 4.14258 4.66616 4.1483 4.573 4.17715C4.47984 4.206 4.39511 4.25712 4.32615 4.32608C4.25719 4.39504 4.20607 4.47977 4.17722 4.57293C4.14836 4.66609 4.14265 4.76488 4.16056 4.86074L5.1039 9.92554C5.12924 10.0608 5.10735 10.2007 5.04187 10.3217L2.579 14.8473C2.53257 14.9329 2.50765 15.0284 2.5064 15.1258C2.50514 15.2231 2.52759 15.3193 2.57179 15.4061C2.616 15.4928 2.68065 15.5675 2.76015 15.6237C2.83966 15.6799 2.93164 15.7159 3.02816 15.7286L8.13697 16.3968C8.27336 16.4148 8.39944 16.4791 8.4941 16.5789ZM5.31152 14.0102L8.39821 14.414C8.98906 14.4918 9.53525 14.7703 9.94533 15.2027L12.0857 17.4621L13.4225 14.6532C13.4225 14.6533 13.4225 14.6532 13.4225 14.6532C13.6792 14.1139 14.1138 13.6792 14.6531 13.4225C14.6531 13.4225 14.6532 13.4225 14.6531 13.4225L17.4622 12.0856L15.2028 9.94527C14.7703 9.53518 14.4919 8.98899 14.414 8.39814L14.0102 5.31149L11.2733 6.80092C10.7497 7.0842 10.1447 7.17918 9.5594 7.07002C9.55925 7.06999 9.55956 7.07005 9.5594 7.07002C9.55882 7.06991 9.55778 7.06972 9.5572 7.06961L6.50032 6.50025L7.06967 9.55714C7.06978 9.55772 7.06989 9.55829 7.07 9.55887C7.06997 9.55872 7.07003 9.55903 7.07 9.55887C7.17916 10.1441 7.08427 10.7496 6.80098 11.2733L6.79859 11.2777L5.31152 14.0102Z"
        fill="#151515" />
    <path fill-rule="evenodd" clip-rule="evenodd"
        d="M8.4941 16.5789L12.0374 20.3192C12.1044 20.3899 12.1876 20.4432 12.2799 20.4745C12.3721 20.5058 12.4706 20.5142 12.5668 20.4989C12.6631 20.4837 12.7541 20.4452 12.8321 20.3869C12.9102 20.3286 12.9728 20.2521 13.0147 20.1642L15.2285 15.5125C15.2877 15.388 15.3881 15.2877 15.5126 15.2284L20.1642 13.0146C20.2522 12.9728 20.3286 12.9101 20.387 12.8321C20.4453 12.754 20.4837 12.663 20.499 12.5668C20.5143 12.4706 20.5059 12.3721 20.4746 12.2798C20.4433 12.1876 20.39 12.1043 20.3193 12.0373L16.579 8.49403C16.4792 8.39937 16.4149 8.2733 16.3969 8.13691L15.7287 3.02909C15.7161 2.93248 15.6802 2.84039 15.6241 2.76076C15.5679 2.68113 15.4933 2.61636 15.4065 2.57204C15.3197 2.52772 15.2235 2.50519 15.1261 2.50639C15.0287 2.50759 14.933 2.53249 14.8474 2.57893L10.3218 5.04181C10.2007 5.10728 10.0609 5.12918 9.92561 5.10383L4.86081 4.16049C4.76494 4.14258 4.66616 4.1483 4.573 4.17715C4.47984 4.206 4.39511 4.25712 4.32615 4.32608C4.25719 4.39504 4.20607 4.47977 4.17722 4.57293C4.14836 4.66609 4.14265 4.76488 4.16056 4.86074L5.1039 9.92554C5.12924 10.0608 5.10735 10.2007 5.04187 10.3217L2.579 14.8473C2.53257 14.9329 2.50765 15.0284 2.5064 15.1258C2.50514 15.2231 2.52759 15.3193 2.57179 15.4061C2.616 15.4928 2.68065 15.5675 2.76015 15.6237C2.83966 15.6799 2.93164 15.7159 3.02816 15.7286L8.13697 16.3968C8.27336 16.4148 8.39944 16.4791 8.4941 16.5789ZM5.31152 14.0102L8.39821 14.414C8.98906 14.4918 9.53525 14.7703 9.94533 15.2027L12.0857 17.4621L13.4225 14.6532C13.4225 14.6533 13.4225 14.6532 13.4225 14.6532C13.6792 14.1139 14.1138 13.6792 14.6531 13.4225C14.6531 13.4225 14.6532 13.4225 14.6531 13.4225L17.4622 12.0856L15.2028 9.94527C14.7703 9.53518 14.4919 8.98899 14.414 8.39814L14.0102 5.31149L11.2733 6.80092C10.7497 7.0842 10.1447 7.17918 9.5594 7.07002C9.55925 7.06999 9.55956 7.07005 9.5594 7.07002C9.55882 7.06991 9.55778 7.06972 9.5572 7.06961L6.50032 6.50025L7.06967 9.55714C7.06978 9.55772 7.06989 9.55829 7.07 9.55887C7.06997 9.55872 7.07003 9.55903 7.07 9.55887C7.17916 10.1441 7.08427 10.7496 6.80098 11.2733L6.79859 11.2777L5.31152 14.0102Z"
        fill="black" fill-opacity="0.2" />
    <path fill-rule="evenodd" clip-rule="evenodd"
        d="M8.4941 16.5789L12.0374 20.3192C12.1044 20.3899 12.1876 20.4432 12.2799 20.4745C12.3721 20.5058 12.4706 20.5142 12.5668 20.4989C12.6631 20.4837 12.7541 20.4452 12.8321 20.3869C12.9102 20.3286 12.9728 20.2521 13.0147 20.1642L15.2285 15.5125C15.2877 15.388 15.3881 15.2877 15.5126 15.2284L20.1642 13.0146C20.2522 12.9728 20.3286 12.9101 20.387 12.8321C20.4453 12.754 20.4837 12.663 20.499 12.5668C20.5143 12.4706 20.5059 12.3721 20.4746 12.2798C20.4433 12.1876 20.39 12.1043 20.3193 12.0373L16.579 8.49403C16.4792 8.39937 16.4149 8.2733 16.3969 8.13691L15.7287 3.02909C15.7161 2.93248 15.6802 2.84039 15.6241 2.76076C15.5679 2.68113 15.4933 2.61636 15.4065 2.57204C15.3197 2.52772 15.2235 2.50519 15.1261 2.50639C15.0287 2.50759 14.933 2.53249 14.8474 2.57893L10.3218 5.04181C10.2007 5.10728 10.0609 5.12918 9.92561 5.10383L4.86081 4.16049C4.76494 4.14258 4.66616 4.1483 4.573 4.17715C4.47984 4.206 4.39511 4.25712 4.32615 4.32608C4.25719 4.39504 4.20607 4.47977 4.17722 4.57293C4.14836 4.66609 4.14265 4.76488 4.16056 4.86074L5.1039 9.92554C5.12924 10.0608 5.10735 10.2007 5.04187 10.3217L2.579 14.8473C2.53257 14.9329 2.50765 15.0284 2.5064 15.1258C2.50514 15.2231 2.52759 15.3193 2.57179 15.4061C2.616 15.4928 2.68065 15.5675 2.76015 15.6237C2.83966 15.6799 2.93164 15.7159 3.02816 15.7286L8.13697 16.3968C8.27336 16.4148 8.39944 16.4791 8.4941 16.5789ZM5.31152 14.0102L8.39821 14.414C8.98906 14.4918 9.53525 14.7703 9.94533 15.2027L12.0857 17.4621L13.4225 14.6532C13.4225 14.6533 13.4225 14.6532 13.4225 14.6532C13.6792 14.1139 14.1138 13.6792 14.6531 13.4225C14.6531 13.4225 14.6532 13.4225 14.6531 13.4225L17.4622 12.0856L15.2028 9.94527C14.7703 9.53518 14.4919 8.98899 14.414 8.39814L14.0102 5.31149L11.2733 6.80092C10.7497 7.0842 10.1447 7.17918 9.5594 7.07002C9.55925 7.06999 9.55956 7.07005 9.5594 7.07002C9.55882 7.06991 9.55778 7.06972 9.5572 7.06961L6.50032 6.50025L7.06967 9.55714C7.06978 9.55772 7.06989 9.55829 7.07 9.55887C7.06997 9.55872 7.07003 9.55903 7.07 9.55887C7.17916 10.1441 7.08427 10.7496 6.80098 11.2733L6.79859 11.2777L5.31152 14.0102Z"
        fill="black" fill-opacity="0.2" />
    <path
        d="M17.0815 16.3745L16.3745 17.0815C16.1793 17.2767 16.1792 17.5933 16.3745 17.7885L19.9094 21.3244C20.1047 21.5197 20.4213 21.5197 20.6166 21.3244L21.3244 20.6166C21.5197 20.4213 21.5197 20.1047 21.3244 19.9094L17.7885 16.3745C17.5933 16.1792 17.2767 16.1793 17.0815 16.3745Z"
        fill="#151515" />
    <path
        d="M17.0815 16.3745L16.3745 17.0815C16.1793 17.2767 16.1792 17.5933 16.3745 17.7885L19.9094 21.3244C20.1047 21.5197 20.4213 21.5197 20.6166 21.3244L21.3244 20.6166C21.5197 20.4213 21.5197 20.1047 21.3244 19.9094L17.7885 16.3745C17.5933 16.1792 17.2767 16.1793 17.0815 16.3745Z"
        fill="black" fill-opacity="0.2" />
    <path
        d="M17.0815 16.3745L16.3745 17.0815C16.1793 17.2767 16.1792 17.5933 16.3745 17.7885L19.9094 21.3244C20.1047 21.5197 20.4213 21.5197 20.6166 21.3244L21.3244 20.6166C21.5197 20.4213 21.5197 20.1047 21.3244 19.9094L17.7885 16.3745C17.5933 16.1792 17.2767 16.1793 17.0815 16.3745Z"
        fill="black" fill-opacity="0.2" />
</svg>
