<svg width="25" height="25" viewBox="0 0 25 25" fill="none" xmlns="http://www.w3.org/2000/svg">
    <path fill-rule="evenodd" clip-rule="evenodd"
        d="M5.3623 11.4531L5.3623 4.95312C5.3623 4.67698 5.58616 4.45312 5.8623 4.45312H10.8623C11.1384 4.45312 11.3623 4.67698 11.3623 4.95313V11.4531H13.3623V6.95312C13.3623 6.67698 13.5862 6.45312 13.8623 6.45312L18.8623 6.45312C19.1384 6.45312 19.3623 6.67698 19.3623 6.95312V11.4531H20.8623C21.1384 11.4531 21.3623 11.677 21.3623 11.9531V12.9531C21.3623 13.2293 21.1384 13.4531 20.8623 13.4531H19.3623V17.9531C19.3623 18.2293 19.1384 18.4531 18.8623 18.4531H13.8623C13.5862 18.4531 13.3623 18.2293 13.3623 17.9531V13.4531H11.3623V19.9531C11.3623 20.2293 11.1384 20.4531 10.8623 20.4531H5.8623C5.58616 20.4531 5.3623 20.2293 5.3623 19.9531L5.3623 13.4531H3.8623C3.58616 13.4531 3.3623 13.2293 3.3623 12.9531V11.9531C3.3623 11.677 3.58616 11.4531 3.8623 11.4531H5.3623ZM7.3623 18.4531H9.3623L9.3623 6.45312H7.3623L7.3623 18.4531ZM15.3623 16.4531H17.3623V8.45312L15.3623 8.45312V16.4531Z"
        fill="#0C0C06" />
</svg>
