<svg width="25" height="25" viewBox="0 0 25 25" fill="none" xmlns="http://www.w3.org/2000/svg">
    <path fill-rule="evenodd" clip-rule="evenodd"
        d="M11.3623 17.4531H7.8623C7.58616 17.4531 7.3623 17.2293 7.3623 16.9531L7.3623 13.4531H3.8623C3.58616 13.4531 3.3623 13.2293 3.3623 12.9531V11.9531C3.3623 11.677 3.58616 11.4531 3.8623 11.4531H7.3623L7.3623 7.95312C7.3623 7.67698 7.58616 7.45312 7.8623 7.45312L11.3623 7.45312L11.3623 3.95312C11.3623 3.67698 11.5862 3.45312 11.8623 3.45312H12.8623C13.1384 3.45312 13.3623 3.67698 13.3623 3.95312L13.3623 7.45312L16.8623 7.45312C17.1384 7.45312 17.3623 7.67698 17.3623 7.95312V11.4531L20.8623 11.4531C21.1384 11.4531 21.3623 11.677 21.3623 11.9531V12.9531C21.3623 13.2293 21.1384 13.4531 20.8623 13.4531H17.3623V16.9531C17.3623 17.2293 17.1384 17.4531 16.8623 17.4531H13.3623V20.9531C13.3623 21.2293 13.1384 21.4531 12.8623 21.4531H11.8623C11.5862 21.4531 11.3623 21.2293 11.3623 20.9531L11.3623 17.4531ZM9.3623 15.4531H15.3623V9.45312L9.3623 9.45312L9.3623 15.4531Z"
        fill="#0C0C06" />
</svg>
