<svg width="25" height="25" viewBox="0 0 25 25" fill="none" xmlns="http://www.w3.org/2000/svg">
    <path fill-rule="evenodd" clip-rule="evenodd"
        d="M13.7363 5.45313V3.95312C13.7363 3.67698 13.5125 3.45312 13.2363 3.45312H12.2363C11.9602 3.45312 11.7363 3.67698 11.7363 3.95312V5.45313L7.23633 5.45313C6.96019 5.45313 6.73633 5.67698 6.73633 5.95313L6.73633 10.9531C6.73633 11.2293 6.96019 11.4531 7.23633 11.4531H11.7363V13.4531H5.23633C4.96019 13.4531 4.73633 13.677 4.73633 13.9531V18.9531C4.73633 19.2293 4.96019 19.4531 5.23633 19.4531H11.7363V20.9531C11.7363 21.2293 11.9602 21.4531 12.2363 21.4531H13.2363C13.5125 21.4531 13.7363 21.2293 13.7363 20.9531V19.4531H20.2363C20.5125 19.4531 20.7363 19.2293 20.7363 18.9531L20.7363 13.9531C20.7363 13.677 20.5125 13.4531 20.2363 13.4531H13.7363V11.4531H18.2363C18.5125 11.4531 18.7363 11.2293 18.7363 10.9531L18.7363 5.95312C18.7363 5.67698 18.5125 5.45312 18.2363 5.45312L13.7363 5.45313ZM16.7363 9.45312V7.45312L8.73633 7.45313V9.45313L16.7363 9.45312ZM18.7363 17.4531V15.4531L6.73633 15.4531L6.73633 17.4531L18.7363 17.4531Z"
        fill="#0C0C06" />
</svg>