<svg width="25" height="25" viewBox="0 0 25 25" fill="none" xmlns="http://www.w3.org/2000/svg">
    <path
        d="M2.3623 20.9531C2.3623 21.2293 2.58616 21.4531 2.8623 21.4531H3.8623C4.13845 21.4531 4.3623 21.2293 4.3623 20.9531V3.95313C4.3623 3.67698 4.13845 3.45312 3.8623 3.45312H2.8623C2.58616 3.45312 2.3623 3.67698 2.3623 3.95312V20.9531Z"
        fill="#0C0C06" />
    <path fill-rule="evenodd" clip-rule="evenodd"
        d="M6.3623 5.95312C6.3623 5.67698 6.58616 5.45312 6.8623 5.45312H17.8623C18.1384 5.45312 18.3623 5.67698 18.3623 5.95312V10.9531C18.3623 11.2293 18.1384 11.4531 17.8623 11.4531H6.8623C6.58616 11.4531 6.3623 11.2293 6.3623 10.9531V5.95312ZM8.3623 7.45312V9.45312H16.3623V7.45312H8.3623Z"
        fill="#0C0C06" />
    <path fill-rule="evenodd" clip-rule="evenodd"
        d="M6.3623 13.9531C6.3623 13.677 6.58616 13.4531 6.8623 13.4531H21.8623C22.1384 13.4531 22.3623 13.677 22.3623 13.9531V18.9531C22.3623 19.2293 22.1384 19.4531 21.8623 19.4531H6.8623C6.58616 19.4531 6.3623 19.2293 6.3623 18.9531V13.9531ZM8.3623 15.4531V17.4531H20.3623V15.4531H8.3623Z"
        fill="#0C0C06" />
</svg>
