<svg width="25" height="25" viewBox="0 0 25 25" fill="none" xmlns="http://www.w3.org/2000/svg">
    <path
        d="M3.3623 3.95313C3.3623 4.22927 3.58616 4.45313 3.8623 4.45313L20.8623 4.45313C21.1384 4.45313 21.3623 4.22927 21.3623 3.95313V2.95312C21.3623 2.67698 21.1384 2.45312 20.8623 2.45312H3.8623C3.58616 2.45312 3.3623 2.67698 3.3623 2.95313V3.95313Z"
        fill="#0C0C06" />
    <path fill-rule="evenodd" clip-rule="evenodd"
        d="M5.8623 18.4531C5.58616 18.4531 5.3623 18.2293 5.3623 17.9531L5.3623 6.95312C5.3623 6.67698 5.58616 6.45312 5.8623 6.45312L10.8623 6.45312C11.1384 6.45312 11.3623 6.67698 11.3623 6.95312L11.3623 17.9531C11.3623 18.2293 11.1384 18.4531 10.8623 18.4531H5.8623ZM7.3623 16.4531H9.3623L9.3623 8.45312H7.3623L7.3623 16.4531Z"
        fill="#0C0C06" />
    <path fill-rule="evenodd" clip-rule="evenodd"
        d="M13.8623 22.4531C13.5862 22.4531 13.3623 22.2293 13.3623 21.9531L13.3623 6.95312C13.3623 6.67698 13.5862 6.45312 13.8623 6.45312L18.8623 6.45312C19.1384 6.45312 19.3623 6.67698 19.3623 6.95312L19.3623 21.9531C19.3623 22.2293 19.1384 22.4531 18.8623 22.4531H13.8623ZM15.3623 20.4531H17.3623L17.3623 8.45312H15.3623L15.3623 20.4531Z"
        fill="#0C0C06" />
</svg>
