<svg width="23" height="22" viewBox="0 0 23 22" fill="none" xmlns="http://www.w3.org/2000/svg">
    <path
        d="M20.1499 2.75C20.6562 2.75 21.0666 3.16041 21.0666 3.66667V18.3333C21.0666 18.8396 20.6562 19.25 20.1499 19.25H3.64994C3.14369 19.25 2.73328 18.8396 2.73328 18.3333V3.66667C2.73328 3.16041 3.14369 2.75 3.64994 2.75H20.1499ZM19.2333 4.58333H4.56661V17.4167H19.2333V4.58333ZM12.8166 15.5833V13.75H15.5666V11H17.3999V15.5833H12.8166ZM10.9833 6.41667V8.25H8.23328V11H6.39994V6.41667H10.9833Z"
        fill="#333333" />
    <rect x="8.38629" y="7.33398" width="9.83128" height="1.83333"
        transform="rotate(35.6945 8.38629 7.33398)" fill="#333333" />
</svg>
