<svg width="25" height="25" viewBox="0 0 25 25" fill="none" xmlns="http://www.w3.org/2000/svg">
    <path fill-rule="evenodd" clip-rule="evenodd"
        d="M15.999 5.45312C16.2752 5.45312 16.499 5.67698 16.499 5.95312V18.9531C16.499 19.2293 16.2752 19.4531 15.999 19.4531H8.99902C8.72288 19.4531 8.49902 19.2293 8.49902 18.9531L8.49902 5.95312C8.49902 5.67698 8.72288 5.45312 8.99902 5.45312L15.999 5.45312ZM14.499 7.45312L10.499 7.45312L10.499 17.4531H14.499V7.45312Z"
        fill="#333333" />
    <path fill-rule="evenodd" clip-rule="evenodd"
        d="M4.99902 3.45312C5.27517 3.45312 5.49902 3.67698 5.49902 3.95313V20.9531C5.49902 21.2293 5.27517 21.4531 4.99902 21.4531H3.99902C3.72288 21.4531 3.49902 21.2293 3.49902 20.9531V3.95312C3.49902 3.67698 3.72288 3.45312 3.99902 3.45312H4.99902Z"
        fill="#333333" />
    <path fill-rule="evenodd" clip-rule="evenodd"
        d="M20.999 3.45312C21.2752 3.45312 21.499 3.67698 21.499 3.95313V20.9531C21.499 21.2293 21.2752 21.4531 20.999 21.4531H19.999C19.7229 21.4531 19.499 21.2293 19.499 20.9531V3.95312C19.499 3.67698 19.7229 3.45312 19.999 3.45312H20.999Z"
        fill="#333333" />
</svg>
