<svg width="23" height="22" viewBox="0 0 23 22" fill="none" xmlns="http://www.w3.org/2000/svg">
    <path
        d="M19.75 2.75C20.2563 2.75 20.6666 3.16041 20.6666 3.66667V18.3333C20.6666 18.8396 20.2563 19.25 19.75 19.25H3.24998C2.74372 19.25 2.33331 18.8396 2.33331 18.3333V3.66667C2.33331 3.16041 2.74372 2.75 3.24998 2.75H19.75ZM18.8333 4.58333H4.16665V17.4167H18.8333V4.58333Z"
        fill="#333333" />
    <path
        d="M8.29311 7.29002L9.58947 8.58638L8.55085 9.625H14.452L13.4134 8.58638L14.7098 7.29002L17.9507 10.5309L14.7098 13.7718L13.4134 12.4755L14.4305 11.4583H8.57234L9.58947 12.4755L8.29311 13.7718L5.05221 10.5309L8.29311 7.29002Z"
        fill="#333333" />
</svg>
