<svg width="23" height="22" viewBox="0 0 23 22" fill="none" xmlns="http://www.w3.org/2000/svg">
    <path
        d="M19.55 2.75C20.0562 2.75 20.4666 3.16041 20.4666 3.66667V18.3333C20.4666 18.8396 20.0562 19.25 19.55 19.25H3.04997C2.54371 19.25 2.1333 18.8396 2.1333 18.3333V3.66667C2.1333 3.16041 2.54371 2.75 3.04997 2.75H19.55ZM18.6333 4.58333H3.96663V17.4167H18.6333V4.58333Z"
        fill="#333333" />
    <path
        d="M8.06053 13.7396L9.35689 12.4432L10.3955 13.4819V8.49735L9.35689 9.53597L8.06053 8.2396L11.3014 4.9987L14.5423 8.2396L13.246 9.53597L12.2288 8.51883V13.4604L13.246 12.4432L14.5423 13.7396L11.3014 16.9805L8.06053 13.7396Z"
        fill="#333333" />
</svg>
