<svg width="25" height="25" viewBox="0 0 25 25" fill="none" xmlns="http://www.w3.org/2000/svg">
    <path fill-rule="evenodd" clip-rule="evenodd"
        d="M19.499 15.9531C19.499 16.2293 19.2752 16.4531 18.999 16.4531L5.99902 16.4531C5.72288 16.4531 5.49902 16.2293 5.49902 15.9531L5.49902 8.95312C5.49902 8.67698 5.72288 8.45312 5.99902 8.45312L18.999 8.45313C19.2752 8.45313 19.499 8.67698 19.499 8.95313V15.9531ZM17.499 14.4531L17.499 10.4531L7.49902 10.4531V14.4531L17.499 14.4531Z"
        fill="#333333" />
    <path fill-rule="evenodd" clip-rule="evenodd"
        d="M21.499 4.95313C21.499 5.22927 21.2752 5.45313 20.999 5.45313L3.99902 5.45312C3.72288 5.45312 3.49902 5.22927 3.49902 4.95312L3.49902 3.95312C3.49902 3.67698 3.72288 3.45312 3.99902 3.45312L20.999 3.45313C21.2752 3.45313 21.499 3.67698 21.499 3.95313V4.95313Z"
        fill="#333333" />
    <path fill-rule="evenodd" clip-rule="evenodd"
        d="M21.499 20.9531C21.499 21.2293 21.2752 21.4531 20.999 21.4531H3.99902C3.72288 21.4531 3.49902 21.2293 3.49902 20.9531L3.49902 19.9531C3.49902 19.677 3.72288 19.4531 3.99902 19.4531H20.999C21.2752 19.4531 21.499 19.677 21.499 19.9531V20.9531Z"
        fill="#333333" />
</svg>
