<svg width="6" height="6" viewBox="0 0 6 6" fill="none" xmlns="http://www.w3.org/2000/svg">
    <path
        d="M6 5.5V1.20711C6 0.761654 5.46143 0.538571 5.14645 0.853553L0.853554 5.14645C0.538571 5.46143 0.761654 6 1.20711 6H5.5C5.77614 6 6 5.77614 6 5.5Z"
        fill="#151515" />
    <path
        d="M6 5.5V1.20711C6 0.761654 5.46143 0.538571 5.14645 0.853553L0.853554 5.14645C0.538571 5.46143 0.761654 6 1.20711 6H5.5C5.77614 6 6 5.77614 6 5.5Z"
        fill="black" fill-opacity="0.2" />
    <path
        d="M6 5.5V1.20711C6 0.761654 5.46143 0.538571 5.14645 0.853553L0.853554 5.14645C0.538571 5.46143 0.761654 6 1.20711 6H5.5C5.77614 6 6 5.77614 6 5.5Z"
        fill="black" fill-opacity="0.2" />
</svg>
