<svg width="24" height="24" viewBox="0 0 24 24" fill="none" xmlns="http://www.w3.org/2000/svg">
    <path
        d="M9.95212 20.3888L4.49277 5.17229C4.35296 4.78258 4.72027 4.40152 5.11485 4.52693L20.0956 9.28826C20.5365 9.42839 20.567 10.0406 20.1422 10.2239L13.682 13.0105C13.5543 13.0655 13.4553 13.1713 13.4088 13.3023L10.8939 20.3873C10.7367 20.8301 10.1108 20.8312 9.95212 20.3888Z"
        stroke="white" stroke-width="2" />
    <path
        d="M9.95212 20.3888L4.49277 5.17229C4.35296 4.78258 4.72027 4.40152 5.11485 4.52693L20.0956 9.28826C20.5365 9.42839 20.567 10.0406 20.1422 10.2239L13.682 13.0105C13.5543 13.0655 13.4553 13.1713 13.4088 13.3023L10.8939 20.3873C10.7367 20.8301 10.1108 20.8312 9.95212 20.3888Z"
        stroke="white" stroke-opacity="0.2" stroke-width="2" />
    <path
        d="M9.95212 20.3888L4.49277 5.17229C4.35296 4.78258 4.72027 4.40152 5.11485 4.52693L20.0956 9.28826C20.5365 9.42839 20.567 10.0406 20.1422 10.2239L13.682 13.0105C13.5543 13.0655 13.4553 13.1713 13.4088 13.3023L10.8939 20.3873C10.7367 20.8301 10.1108 20.8312 9.95212 20.3888Z"
        stroke="white" stroke-opacity="0.2" stroke-width="2" />
</svg>
