<svg width="24" height="24" viewBox="0 0 24 24" fill="none" xmlns="http://www.w3.org/2000/svg">
    <path
        d="M11.9995 3C9.51452 3 7.26314 4.00845 5.63558 5.63606C5.45789 5.81374 5.23555 6.04708 4.99951 6.29988V4.32136C4.99951 4.04522 4.77565 3.82136 4.49951 3.82136H3.49951C3.22337 3.82136 2.99951 4.04522 2.99951 4.32136V8.89628C2.99951 9.44856 3.44723 9.89628 3.99951 9.89628H8.49951C8.77565 9.89628 8.99951 9.67242 8.99951 9.39628V8.39628C8.99951 8.12013 8.77565 7.89628 8.49951 7.89628H6.24641C6.55135 7.56628 6.84049 7.25956 7.04981 7.05025C8.31762 5.78241 10.0662 5 11.9995 5C15.8655 5 18.9995 8.13402 18.9995 12C18.9995 15.866 15.8655 19 11.9995 19C10.246 19 8.64431 18.3563 7.41559 17.2905C7.20699 17.1096 6.89152 17.108 6.69625 17.3033L5.98913 18.0104C5.79387 18.2057 5.79296 18.5234 5.99872 18.7076C7.59034 20.1323 9.69442 21 11.9995 21C16.9701 21 20.9995 16.9706 20.9995 12C20.9995 7.02945 16.9701 3 11.9995 3Z"
        fill="white" />
</svg>
