<svg width="24" height="24" viewBox="0 0 24 24" fill="none" xmlns="http://www.w3.org/2000/svg">
    <path fill-rule="evenodd" clip-rule="evenodd"
        d="M13.4795 13.1667C13.9727 13.1667 14.3038 12.8424 14.3127 12.3537L14.3129 12.3333V5.90631C14.3181 5.57821 14.5663 5.33341 14.8962 5.33341C15.2295 5.33341 15.4795 5.58341 15.4795 5.91675V7.57022L15.4795 7.58325V12.2499C15.4795 12.3125 15.4847 12.3724 15.4948 12.4294C15.4994 12.4555 15.5051 12.4809 15.5117 12.5057C15.6065 12.8604 15.9039 13.0834 16.3129 13.0834C16.3198 13.0834 16.3267 13.0833 16.3336 13.0831C16.3366 13.0831 16.3395 13.083 16.3425 13.0829C16.6717 13.074 16.9251 12.9183 17.0534 12.6651C17.112 12.5653 17.1462 12.4528 17.1462 12.3334V7.57622C17.1497 7.24641 17.3985 6.99992 17.7295 6.99992C18.0628 6.99992 18.3128 7.24992 18.3128 7.58325V16.4166C18.3128 18.1666 17.3128 19.6666 15.8128 20.0833C14.0628 20.5833 12.0628 20.3333 11.0628 20.1666C9.29879 19.8458 7.99767 18.2135 7.30793 17.3482L7.22948 17.2499L7.06282 16.9999C6.14615 15.8333 5.01455 14.4505 5.01455 14.4505C4.84788 14.2005 4.76455 14.0339 4.84788 13.7839C4.93122 13.5339 5.01455 13.3672 5.26455 13.2005C5.43122 13.0339 5.68122 13.0339 5.93122 13.0339C6.18122 13.0339 6.34788 13.2005 6.51455 13.3672L7.06196 14.1199C7.14861 14.316 7.30647 14.4591 7.51489 14.5285C7.78755 14.636 8.12407 14.6184 8.34788 14.4505C8.57736 14.2784 8.68835 13.9483 8.65367 13.6506V5.90894C8.65367 5.5756 8.90367 5.3256 9.23701 5.3256C9.53684 5.3256 9.76925 5.52788 9.81293 5.81113V12.3333C9.81293 12.8333 10.1463 13.1667 10.6463 13.1667C10.9047 13.1667 11.1186 13.0776 11.265 12.9225C11.4064 12.7771 11.487 12.5715 11.487 12.3256V5.90894C11.487 5.84644 11.4845 5.78457 11.4796 5.72342V4.25C11.4796 3.91667 11.7296 3.66667 12.0629 3.66667C12.3963 3.66667 12.6463 3.91667 12.6463 4.25V5.89715L12.6462 5.91675V12.3334C12.6462 12.8334 12.9795 13.1667 13.4795 13.1667ZM9.8684 3.7474C10.0945 2.74238 10.9859 2 12.0629 2C13.1433 2 14.0369 2.74698 14.2595 3.75674C14.4611 3.69814 14.6747 3.66675 14.8962 3.66675C15.9765 3.66675 16.87 4.41362 17.0928 5.42327C17.2944 5.36465 17.508 5.33325 17.7295 5.33325C18.9795 5.33325 19.9795 6.33325 19.9795 7.58325V16.3333C19.9795 18.8333 18.4795 20.9999 16.2295 21.6666C15.3128 21.9166 14.3128 21.9999 13.3961 21.9999C12.5328 21.9999 11.7753 21.8941 11.1659 21.8089L11.1658 21.8089L11.1658 21.8089H11.1658C11.0105 21.7872 10.8648 21.7668 10.7295 21.7499C8.22948 21.2499 6.56282 19.1666 5.89615 18.2499L5.72948 17.9999C4.81282 16.7499 3.68122 15.3672 3.68122 15.3672C3.26455 14.8672 3.09788 14.1172 3.26455 13.4505C3.34788 12.7839 3.76455 12.2005 4.26455 11.7839C4.84788 11.3672 5.51455 11.2005 6.18122 11.3672C6.46736 11.403 6.73816 11.5001 6.98701 11.639V5.90894C6.98701 4.65894 7.98701 3.65894 9.23701 3.65894C9.45654 3.65894 9.66835 3.68978 9.8684 3.7474Z"
        fill="white" />
</svg>
