<svg width="24" height="24" viewBox="0 0 24 24" fill="none" xmlns="http://www.w3.org/2000/svg">
    <path
        d="M11.9995 3C14.4845 3 16.7359 4.00845 18.3634 5.63606C18.5411 5.81374 18.7635 6.04708 18.9995 6.29988V4.32136C18.9995 4.04522 19.2234 3.82136 19.4995 3.82136H20.4995C20.7757 3.82136 20.9995 4.04522 20.9995 4.32136V8.89628C20.9995 9.44856 20.5518 9.89628 19.9995 9.89628H15.4995C15.2234 9.89628 14.9995 9.67242 14.9995 9.39628V8.39628C14.9995 8.12013 15.2234 7.89628 15.4995 7.89628H17.7526C17.4477 7.56628 17.1585 7.25956 16.9492 7.05025C15.6814 5.78241 13.9328 5 11.9995 5C8.13351 5 4.99949 8.13402 4.99949 12C4.99949 15.866 8.13351 19 11.9995 19C13.7531 19 15.3547 18.3563 16.5834 17.2905C16.792 17.1096 17.1075 17.108 17.3028 17.3033L18.0099 18.0104C18.2052 18.2057 18.2061 18.5234 18.0003 18.7076C16.4087 20.1323 14.3046 21 11.9995 21C7.02894 21 2.99949 16.9706 2.99949 12C2.99949 7.02945 7.02894 3 11.9995 3Z"
        fill="white" />
</svg>
