<svg width="24" height="24" viewBox="0 0 24 24" fill="none" xmlns="http://www.w3.org/2000/svg">
    <path fill-rule="evenodd" clip-rule="evenodd"
        d="M16 8L16 2.5C16 2.22386 15.7761 2 15.5 2H2.5C2.22386 2 2 2.22386 2 2.5V15.5C2 15.7761 2.22386 16 2.5 16H8L8 21.5C8 21.7761 8.22386 22 8.5 22L21.5 22C21.7761 22 22 21.7761 22 21.5L22 8.5C22 8.22386 21.7761 8 21.5 8L16 8ZM15.5 16C15.7761 16 16 15.7761 16 15.5L16 10L20 10L20 20L10 20L10 16H15.5ZM14 8L8.5 8C8.22386 8 8 8.22386 8 8.5L8 14H4L4 4L14 4V8Z"
        fill="#333333" />
</svg>
